<svg xmlns="http://www.w3.org/2000/svg" viewBox="0 0 155.17 179.97"><title>map_reims</title><path d="M36.24,144.8l2,.79,3-3,.2-1-4.25-4.77-1.88-25.84-.5.71-.64.66-1.24.51-1.69.52-3.78-2.2,1-1.52-3.6-3.25L19.82,109l-1.72,2.12-1.32,2-.64,2v1.47l.27,2,.29,1.28,1.21,8.71-2.83,5.73,21.08,10.59Z" transform="translate(0 0)" fill="#00608f" stroke="#fff" stroke-width="1.6"/><path d="M44,113.75l-3.25-3.16-1.19.15-2.48-2.36-.56.81-.15.21-.15.21-.49.71,1.91,26.27,4.14,4.64.45-.26.21-.13.21-.12,2.25-1.32,4.45-1.8-1-1.23,2-4.31,3.85,5.16,6-6.13,8.59-8.59-1.44-1.65L56.86,106.29l-2.32-2.6Z" transform="translate(0 0)" fill="#00608f" stroke="#fff" stroke-width="1.6"/><path d="M56.49,141.08l-.15-.21L54,137.72,50.5,133l-1.56,3.31,1.24,1.49-5,2.05-2.28,1.34-.21.12-.21.12-.18.1-.28.17-.06,0,0,.19-.18.89-3.24,3.3-.06.06-1.4-.55-.56-.21-.09.15-2.44,3.93-4.84,10.78,12.28,7.17.47,10.78,10.36.88-.53-9,5.17.34-1.18-7.31,1.13-4.75.89-2.94,2.38-5,1.47-2.59-4.86-6.63Z" transform="translate(0 0)" fill="#00608f" stroke="#fff" stroke-width="1.6"/><path d="M129.54,143.47l-39-11.66-3.29-1.05-13.85-5.28-.24-.09-.25-.09-2.44-.93-1.31-1.51-8.56,8.57-6,6.12,2.29,3.16.15.21.15.21,6,8.24,6-10.67L71,136.63,74.65,133l2.48,4.35,6.64,1.21h0l9.47,3.13,5.41.33,1.11-1.56,4.18.44,1.23.78,2.49,3.54L120,149.05l1.93-2.22,1.7.4,1.59-2.93,6.3,2.16.83-2.21L131,144Z" transform="translate(0 0)" fill="#00608f" stroke="#fff" stroke-width="1.6"/><path d="M144.44,128.84l-9.66-5.06-9.62-4.07L121.71,127l-1.26-.16,0,0L91.82,114l-6.61-2.82,1.06-1.51L88,107.77l-5.11-4.45-4.35-2.9-1.64,5-6.4-6.55-2-6.44-1.11.67-.51-1.55L63.43,94l-2.35.2,1.74,2.34-6.18,5.07-.19.15-.19.16-1.35,1.1.14.13-.16.17L57.24,106l10.52,14.56,1.4,1.6.28.33.32.36,1,1.11,2.52,1,.24.09.24.1,13.66,5.2,3.26,1,28,8.36,5.54,1.65,5.53,1.66,1.24.37,4.21-7.38L153,155.26l1.37-19.91Z" transform="translate(0 0)" fill="#00608f" stroke="#fff" stroke-width="1.6"/><path d="M123,75.86l-8.39,2v.05l-8.85,1.43-4.39.43-9.48,2-.34.51-.67-.2-7.17-.69-.2,1.95-.55,1-9.2-.86-.89,1.83v0l-2.5,5.48-.1.22-.1.22-.14.31-1.11.67v0l2,6.43,5.75,5.9,1.6-4.88L83.19,103l5.49,4.79-2,2.24-.7,1L92,113.56l28.56,12.76.84.11,3.23-6.76-2.13-.79-1.68-.62.09-.14.13-.21,4.8-7.82,4.36-13.68-12.8-3.09,1.68-10.6Z" transform="translate(0 0)" fill="#00608f" stroke="#fff" stroke-width="1.6"/><path d="M64,54.26l-8.38,13,2.82,2.49,5.92-2.34,7.07,14.79.16.32.15.33.89,1.86.88-1.79,9.21.86.35-.62.25-2.33,7.71.75.34.1.25-.38,9.72-2.06,4.4-.43,7.86-1.28.42-.06,0-.07-.08-.28-4.62-15.34,4.81-1.39-3.49-5.46,4.79-2.9-2.13-5.76-5.72.57-.42-1.06-1.72.68-1-2L97.7,46.3l-5.51,3-2.61-2L78.34,58.71l.44.83-2,3.39Z" transform="translate(0 0)" fill="#00608f" stroke="#fff" stroke-width="1.6"/><path d="M15.69,30.28l6.36,7L26.68,43l-1.42,1.29-.05.78-1.66,1.48,3.22.41,5.5,9,5.93-5.26.08.14,1.9-1.13-1-2.32-1.47-1.68-.45-.75-.33-1.64,2.39-1.16L38,40l-3.3,1.72-1.85-3.52,2.83-2.57.05,0,12.27-4,1.22-.23.79-21-9,.06-3.1.4-.41-3-3.41-2.4-2.18-.8L30.74,4,29.07,1.11,13.43,10.58l.76,1.29L1.41,19.23l10,8.13-1.33.74L8.73,29.41l-1,.76-4.5,1.22,5.45,5.87L10.89,39,12.2,37.8l2.66-7.66Z" transform="translate(0 0)" fill="#00608f" stroke="#fff" stroke-width="1.6"/><path d="M49.67,31.85l-.27,0-.27.05-1,.18L36,36.07l-2.48,2.25,1.45,2.76,3.27-1.71L40,42.3l-2.52,1.23.24,1.19.39.67,1.48,1.67,1.26,2.78L38.53,51.2l1.53,2.63.12.21.12.21,8.13,14,2.86,4.84.1-.56.07-.81.08-.11.05-.3,1.1-1.3.61-.73,1.16-1.53.66-.88.1.08,4.2-6.53,4.19-6.5,0,0L62.64,53l2.55-3-2.83-1.49L63.65,46,58.9,43.32V37.91l-2.1-2,.82-.78-2.12-2.14-5.13,1.51,0-2.74Z" transform="translate(0 0)" fill="#00608f" stroke="#fff" stroke-width="1.6"/><path d="M50.22,75.73l1-1.72L48,68.51l-8.1-14-.13-.21-.12-.21L38.08,51.4l-.11.1-5.8,5.15L26.48,47.4,23.67,47l-.34,0h0v.38l0,1.38-4.35,4.16-3.81,5,.61,6.89.91,2,.16,1.94.07-.1,5.27,5.08,2.44,2.17,8.67,7.14,4.94,4L42.39,85Z" transform="translate(0 0)" fill="#00608f" stroke="#fff" stroke-width="1.6"/><path d="M17.93,80.8l-.3,4.83-.15.87,2.33.33,2.61.64,2.5-.42,2.27,1.1,2.06-1.47.19.06,2.17-.25.82.61,1.8,1.67L32,92.08l-1.73,3.41-.88,2.94.23,2.16.78-.07.47,2.63-1.66,1L25.89,106l-.29.16-.13.08.23.21,3.47,3.13-1,1.44,3.14,1.83,1.48-.46,1.11-.46.56-.58.8-1.14.22-.32.22-.31.06-.09.15-.21.14-.21,1-1.4,2.72,2.58,1.19-.15,3.09,3,10.11-9.7-1.62-1.55-.18-.17-.17-.17L37.68,87.55l.16-.09-.05,0-4.8-4-8.74-7.2-1.22-1-1.22-1.18-4.67-4.49-.2-.19h0l-.13.2-.43.61-.32,3-2.37-.06L13,78.48,13.71,82l2.37-1Z" transform="translate(0 0)" fill="#00608f" stroke="#fff" stroke-width="1.6"/><path d="M56.09,101.46l.19-.15,5.88-4.83-2-2.66,3.08-.26,3.85-2.75.53,1.59.87-.52.31-.19.3-.19.53-.31.09-.2.1-.23.1-.22,2.39-5.25h0l-.23-.49-.24-.48-.37-.77-.15-.33-.16-.32L64.07,68,58.3,70.32l-3-2.66-.1-.08-1.51,2-.28.36-.15.2-.14.19L52,71.8l-.07.09-.07.7-.12,1.35,0,.15v0l-.17.31v0l-.92,1.66-7.89,9.27-4.08,2.19-.16.09,10.22,9.81,3.84,3.69.18.17.17.17,1.18,1.13.19.18.08.08,0,0,.19-.16h0l1.33-1.09Z" transform="translate(0 0)" fill="#00608f" stroke="#fff" stroke-width="1.6"/></svg>